<svg id="render_dfd_lv1" width="100%" xmlns="http://www.w3.org/2000/svg" style="max-width: 1515.0703125px;" viewBox="-8 -8 1515.0703125 2216.692626953125" role="graphics-document document" aria-roledescription="flowchart-v2"><style>#render_dfd_lv1{font-size:16px;fill:#000000;}#render_dfd_lv1 .error-icon{fill:#ffffff;}#render_dfd_lv1 .error-text{fill:#000000;stroke:#000000;}#render_dfd_lv1 .edge-thickness-normal{stroke-width:2px;}#render_dfd_lv1 .edge-thickness-thick{stroke-width:3.5px;}#render_dfd_lv1 .edge-pattern-solid{stroke-dasharray:0;}#render_dfd_lv1 .edge-pattern-dashed{stroke-dasharray:3;}#render_dfd_lv1 .edge-pattern-dotted{stroke-dasharray:2;}#render_dfd_lv1 .marker{fill:#1e293b;stroke:#1e293b;}#render_dfd_lv1 .marker.cross{stroke:#1e293b;}#render_dfd_lv1 svg{font-size:16px;}#render_dfd_lv1 .label{color:#000000;}#render_dfd_lv1 .cluster-label text{fill:#000000;}#render_dfd_lv1 .cluster-label span,#render_dfd_lv1 p{color:#000000;}#render_dfd_lv1 .label text,#render_dfd_lv1 span,#render_dfd_lv1 p{fill:#000000;color:#000000;}#render_dfd_lv1 .node rect,#render_dfd_lv1 .node circle,#render_dfd_lv1 .node ellipse,#render_dfd_lv1 .node polygon,#render_dfd_lv1 .node path{fill:#fef3c7;stroke:#1e293b;stroke-width:1px;}#render_dfd_lv1 .flowchart-label text{text-anchor:middle;}#render_dfd_lv1 .node .katex path{fill:#000;stroke:#000;stroke-width:1px;}#render_dfd_lv1 .node .label{text-align:center;}#render_dfd_lv1 .node.clickable{cursor:pointer;}#render_dfd_lv1 .arrowheadPath{fill:#0b0b0b;}#render_dfd_lv1 .edgePath .path{stroke:#1e293b;stroke-width:2.0px;}#render_dfd_lv1 .flowchart-link{stroke:#1e293b;fill:none;}#render_dfd_lv1 .edgeLabel{background-color:#ffffff;text-align:center;}#render_dfd_lv1 .edgeLabel rect{opacity:0.5;background-color:#ffffff;fill:#ffffff;}#render_dfd_lv1 .labelBkg{background-color:rgba(255, 255, 255, 0.5);}#render_dfd_lv1 .cluster rect{fill:#f8fafc;stroke:#64748b;stroke-width:1px;}#render_dfd_lv1 .cluster text{fill:#000000;}#render_dfd_lv1 .cluster span,#render_dfd_lv1 p{color:#000000;}#render_dfd_lv1 div.mermaidTooltip{position:absolute;text-align:center;max-width:200px;padding:2px;font-size:12px;background:#ffffff;border:1px solid hsl(0, 0%, 90%);border-radius:2px;pointer-events:none;z-index:100;}#render_dfd_lv1 .flowchartTitleText{text-anchor:middle;font-size:18px;fill:#000000;}#render_dfd_lv1 :root{--mermaid-font-family:Segoe UI,-apple-system,sans-serif;}#render_dfd_lv1 .entityBox&gt;*{fill:#e0f2fe!important;stroke:#1e293b!important;stroke-width:2px!important;color:#000000!important;font-weight:600!important;}#render_dfd_lv1 .entityBox span{fill:#e0f2fe!important;stroke:#1e293b!important;stroke-width:2px!important;color:#000000!important;font-weight:600!important;}#render_dfd_lv1 .entityBox tspan{fill:#000000!important;}#render_dfd_lv1 .processBubble&gt;*{fill:#fef3c7!important;stroke:#1e293b!important;stroke-width:2.5px!important;color:#000000!important;font-weight:600!important;}#render_dfd_lv1 .processBubble span{fill:#fef3c7!important;stroke:#1e293b!important;stroke-width:2.5px!important;color:#000000!important;font-weight:600!important;}#render_dfd_lv1 .processBubble tspan{fill:#000000!important;}#render_dfd_lv1 .storeBox&gt;*{fill:#f3e8ff!important;stroke:#1e293b!important;stroke-width:2px!important;color:#000000!important;font-weight:600!important;}#render_dfd_lv1 .storeBox span{fill:#f3e8ff!important;stroke:#1e293b!important;stroke-width:2px!important;color:#000000!important;font-weight:600!important;}#render_dfd_lv1 .storeBox tspan{fill:#000000!important;}</style><g><marker id="render_dfd_lv1_flowchart-pointEnd" class="marker flowchart" viewBox="0 0 10 10" refX="6" refY="5" markerUnits="userSpaceOnUse" markerWidth="12" markerHeight="12" orient="auto"><path d="M 0 0 L 10 5 L 0 10 z" class="arrowMarkerPath" style="stroke-width: 1; stroke-dasharray: 1, 0;"></path></marker><marker id="render_dfd_lv1_flowchart-pointStart" class="marker flowchart" viewBox="0 0 10 10" refX="4.5" refY="5" markerUnits="userSpaceOnUse" markerWidth="12" markerHeight="12" orient="auto"><path d="M 0 5 L 10 10 L 10 0 z" class="arrowMarkerPath" style="stroke-width: 1; stroke-dasharray: 1, 0;"></path></marker><marker id="render_dfd_lv1_flowchart-circleEnd" class="marker flowchart" viewBox="0 0 10 10" refX="11" refY="5" markerUnits="userSpaceOnUse" markerWidth="11" markerHeight="11" orient="auto"><circle cx="5" cy="5" r="5" class="arrowMarkerPath" style="stroke-width: 1; stroke-dasharray: 1, 0;"></circle></marker><marker id="render_dfd_lv1_flowchart-circleStart" class="marker flowchart" viewBox="0 0 10 10" refX="-1" refY="5" markerUnits="userSpaceOnUse" markerWidth="11" markerHeight="11" orient="auto"><circle cx="5" cy="5" r="5" class="arrowMarkerPath" style="stroke-width: 1; stroke-dasharray: 1, 0;"></circle></marker><marker id="render_dfd_lv1_flowchart-crossEnd" class="marker cross flowchart" viewBox="0 0 11 11" refX="12" refY="5.2" markerUnits="userSpaceOnUse" markerWidth="11" markerHeight="11" orient="auto"><path d="M 1,1 l 9,9 M 10,1 l -9,9" class="arrowMarkerPath" style="stroke-width: 2; stroke-dasharray: 1, 0;"></path></marker><marker id="render_dfd_lv1_flowchart-crossStart" class="marker cross flowchart" viewBox="0 0 11 11" refX="-1" refY="5.2" markerUnits="userSpaceOnUse" markerWidth="11" markerHeight="11" orient="auto"><path d="M 1,1 l 9,9 M 10,1 l -9,9" class="arrowMarkerPath" style="stroke-width: 2; stroke-dasharray: 1, 0;"></path></marker><g class="root"><g class="clusters"><g class="cluster default flowchart-label" id="TIER_STORES"><rect style="" rx="0" ry="0" x="1225.4140625" y="696.671064376831" width="273.65625" height="1504.021490097046"></rect><g class="cluster-label" transform="translate(1225.4140625, 696.671064376831)"><foreignObject width="273.65625" height="18"><div xmlns="http://www.w3.org/1999/xhtml" style="display: inline-block; white-space: nowrap;"><span class="nodeLabel">CỘT 3: KHO DỮ LIỆU (DATA STORES)</span></div></foreignObject></g></g><g class="cluster default flowchart-label" id="TIER_PROCESSES"><rect style="" rx="0" ry="0" x="0" y="646.1038436889648" width="1012.171875" height="1521.4081554412842"></rect><g class="cluster-label" transform="translate(357.640625, 646.1038436889648)"><foreignObject width="296.890625" height="18"><div xmlns="http://www.w3.org/1999/xhtml" style="display: inline-block; white-space: nowrap;"><span class="nodeLabel">CỘT 2: TIẾN TRÌNH XỬ LÝ (PROCESSES)</span></div></foreignObject></g></g><g class="cluster default flowchart-label" id="TIER_ENTITIES"><rect style="" rx="0" ry="0" x="391.46875" y="0" width="1073.609375" height="626.1038436889648"></rect><g class="cluster-label" transform="translate(791.0234375, 0)"><foreignObject width="274.5" height="18"><div xmlns="http://www.w3.org/1999/xhtml" style="display: inline-block; white-space: nowrap;"><span class="nodeLabel">CỘT 1: TÁC NHÂN NGOÀI (ENTITIES)</span></div></foreignObject></g></g></g><g class="edgePaths"><path d="M550.629,117.354L573.581,104.128C596.534,90.903,642.439,64.451,695.668,158.012C748.898,251.573,809.452,465.147,839.728,571.934L870.005,678.72" id="L-CUST-P1-0" class=" edge-thickness-normal edge-pattern-solid flowchart-link LS-CUST LE-P1" style="fill:none;" marker-start="url(#render_dfd_lv1_flowchart-pointStart)" marker-end="url(#render_dfd_lv1_flowchart-pointEnd)"></path><path d="M531.101,227L557.308,204.833C583.515,182.667,635.93,138.333,692.141,213.701C748.353,289.068,808.362,484.136,838.366,581.67L868.371,679.204" id="L-ADMIN-P1-0" class=" edge-thickness-normal edge-pattern-solid flowchart-link LS-ADMIN LE-P1" style="fill:none;" marker-end="url(#render_dfd_lv1_flowchart-pointEnd)"></path><path d="M967.894,752.713L975.273,752.713C982.653,752.713,997.413,752.713,1025.395,752.713C1053.378,752.713,1094.583,752.713,1135.789,752.713C1176.995,752.713,1218.201,752.713,1250.44,756.209C1282.68,759.706,1305.955,766.698,1317.592,770.195L1329.229,773.691" id="L-P1-D1-0" class=" edge-thickness-normal edge-pattern-solid flowchart-link LS-P1 LE-D1" style="fill:none;" marker-start="url(#render_dfd_lv1_flowchart-pointStart)" marker-end="url(#render_dfd_lv1_flowchart-pointEnd)"></path><path d="M566.534,148.068L586.835,148.39C607.137,148.712,647.74,149.356,698.263,269.955C748.786,390.553,809.228,631.106,839.449,751.383L869.67,871.659" id="L-CUST-P2-0" class=" edge-thickness-normal edge-pattern-solid flowchart-link LS-CUST LE-P2" style="fill:none;" marker-start="url(#render_dfd_lv1_flowchart-pointStart)" marker-end="url(#render_dfd_lv1_flowchart-pointEnd)"></path><path d="M570.745,254L590.345,254C609.945,254,649.144,254,698.477,357.075C747.81,460.15,807.276,666.299,837.01,769.374L866.743,872.449" id="L-ADMIN-P2-0" class=" edge-thickness-normal edge-pattern-solid flowchart-link LS-ADMIN LE-P2" style="fill:none;" marker-start="url(#render_dfd_lv1_flowchart-pointStart)" marker-end="url(#render_dfd_lv1_flowchart-pointEnd)"></path><path d="M978.448,956.487L984.069,956.487C989.69,956.487,1000.931,956.487,1027.154,956.487C1053.378,956.487,1094.583,956.487,1135.789,956.487C1176.995,956.487,1218.201,956.487,1252.967,991.914C1287.733,1027.341,1316.059,1098.196,1330.223,1133.623L1344.386,1169.05" id="L-P2-D2-0" class=" edge-thickness-normal edge-pattern-solid flowchart-link LS-P2 LE-D2" style="fill:none;" marker-start="url(#render_dfd_lv1_flowchart-pointStart)" marker-end="url(#render_dfd_lv1_flowchart-pointEnd)"></path><path d="M495.254,174L477.957,292.98C460.659,411.959,426.064,649.918,391.895,768.898C357.727,887.877,323.984,887.877,283.836,928.298C243.688,968.718,197.133,1049.559,173.856,1089.979L150.578,1130.4" id="L-CUST-P3-0" class=" edge-thickness-normal edge-pattern-solid flowchart-link LS-CUST LE-P3" style="fill:none;" marker-end="url(#render_dfd_lv1_flowchart-pointEnd)"></path><path d="M143.074,1132.407L167.602,1082.319C192.13,1032.231,241.186,932.054,282.585,881.966C323.984,831.877,357.727,831.877,391.705,723.104C425.682,614.33,459.896,396.783,477.003,288.009L494.11,179.236" id="L-P3-CUST-0" class=" edge-thickness-normal edge-pattern-solid flowchart-link LS-P3 LE-CUST" style="fill:none;" marker-end="url(#render_dfd_lv1_flowchart-pointEnd)"></path><path d="M123.836,1286.321L151.57,1418.602C179.305,1550.884,234.773,1815.446,279.379,1947.727C323.984,2080.008,357.727,2080.008,392.549,2080.008C427.372,2080.008,463.276,2080.008,512.755,2080.008C562.234,2080.008,625.289,2080.008,690.59,2080.008C755.891,2080.008,823.438,2080.008,877.409,2080.008C931.38,2080.008,971.776,2080.008,1012.577,2080.008C1053.378,2080.008,1094.583,2080.008,1135.789,2080.008C1176.995,2080.008,1218.201,2080.008,1248.776,2084.466C1279.351,2088.923,1299.295,2097.838,1309.267,2102.296L1319.24,2106.753" id="L-P3-D6-0" class=" edge-thickness-normal edge-pattern-solid flowchart-link LS-P3 LE-D6" style="fill:none;" marker-end="url(#render_dfd_lv1_flowchart-pointEnd)"></path><path d="M177.773,1154.922L196.518,1141.377C215.263,1127.832,252.753,1100.741,288.368,1087.196C323.984,1073.651,357.727,1073.651,392.549,1073.651C427.372,1073.651,463.276,1073.651,512.755,1073.651C562.234,1073.651,625.289,1073.651,690.59,1073.651C755.891,1073.651,823.438,1073.651,877.409,1073.651C931.38,1073.651,971.776,1073.651,1012.577,1073.651C1053.378,1073.651,1094.583,1073.651,1135.789,1073.651C1176.995,1073.651,1218.201,1073.651,1250.549,1090.089C1282.898,1106.527,1306.39,1139.404,1318.136,1155.843L1329.882,1172.281" id="L-P3-D2-0" class=" edge-thickness-normal edge-pattern-solid flowchart-link LS-P3 LE-D2" style="fill:none;" marker-start="url(#render_dfd_lv1_flowchart-pointStart)" marker-end="url(#render_dfd_lv1_flowchart-pointEnd)"></path><path d="M171.382,1256.865L191.192,1272.5C211.002,1288.135,250.622,1319.404,287.303,1335.039C323.984,1350.674,357.727,1350.674,392.549,1350.674C427.372,1350.674,463.276,1350.674,512.755,1350.674C562.234,1350.674,625.289,1350.674,690.59,1350.674C755.891,1350.674,823.438,1350.674,877.409,1350.674C931.38,1350.674,971.776,1350.674,1012.577,1350.674C1053.378,1350.674,1094.583,1350.674,1135.789,1350.674C1176.995,1350.674,1218.201,1350.674,1252.497,1378.976C1286.794,1407.278,1314.181,1463.881,1327.875,1492.183L1341.569,1520.485" id="L-P3-D3-0" class=" edge-thickness-normal edge-pattern-solid flowchart-link LS-P3 LE-D3" style="fill:none;" marker-end="url(#render_dfd_lv1_flowchart-pointEnd)"></path><path d="M129.619,1284.888L156.389,1378.219C183.16,1471.551,236.701,1658.214,280.343,1751.546C323.984,1844.877,357.727,1844.877,392.549,1844.877C427.372,1844.877,463.276,1844.877,512.755,1844.877C562.234,1844.877,625.289,1844.877,690.59,1844.877C755.891,1844.877,823.438,1844.877,877.409,1844.877C931.38,1844.877,971.776,1844.877,1012.577,1844.877C1053.378,1844.877,1094.583,1844.877,1135.789,1844.877C1176.995,1844.877,1218.201,1844.877,1246.937,1846.38C1275.674,1847.883,1291.942,1850.889,1300.076,1852.391L1308.21,1853.894" id="L-P3-D4-0" class=" edge-thickness-normal edge-pattern-solid flowchart-link LS-P3 LE-D4" style="fill:none;" marker-end="url(#render_dfd_lv1_flowchart-pointEnd)"></path><path d="M530.514,174L556.819,196.667C583.124,219.333,635.734,264.667,692.214,419.963C748.694,575.259,809.044,840.517,839.219,973.147L869.394,1105.776" id="L-CUST-P4-0" class=" edge-thickness-normal edge-pattern-solid flowchart-link LS-CUST LE-P4" style="fill:none;" marker-end="url(#render_dfd_lv1_flowchart-pointEnd)"></path><path d="M869.274,1111.248L839.119,987.04C808.964,862.832,748.654,614.416,691.436,458.877C634.218,303.337,580.092,240.674,553.029,209.342L525.966,178.011" id="L-P4-CUST-0" class=" edge-thickness-normal edge-pattern-solid flowchart-link LS-P4 LE-CUST" style="fill:none;" marker-end="url(#render_dfd_lv1_flowchart-pointEnd)"></path><path d="M914.294,1106.183L930.607,1040.054C946.92,973.925,979.546,841.667,1016.462,708.97C1053.378,576.272,1094.583,443.136,1135.789,376.568C1176.995,310,1218.201,310,1242.087,310C1265.973,310,1272.54,310,1275.823,310L1279.106,310" id="L-P4-GATEWAY-0" class=" edge-thickness-normal edge-pattern-solid flowchart-link LS-P4 LE-GATEWAY" style="fill:none;" marker-start="url(#render_dfd_lv1_flowchart-pointStart)" marker-end="url(#render_dfd_lv1_flowchart-pointEnd)"></path><path d="M905.644,1296.887L923.399,1413.413C941.153,1529.938,976.663,1762.99,1015.02,1879.515C1053.378,1996.041,1094.583,1996.041,1135.789,1996.041C1176.995,1996.041,1218.201,1996.041,1248.328,1996.041C1278.455,1996.041,1297.503,1996.041,1307.027,1996.041L1316.552,1996.041" id="L-P4-D5-0" class=" edge-thickness-normal edge-pattern-solid flowchart-link LS-P4 LE-D5" style="fill:none;" marker-start="url(#render_dfd_lv1_flowchart-pointStart)" marker-end="url(#render_dfd_lv1_flowchart-pointEnd)"></path><path d="M940.843,1278.02L952.731,1296.463C964.619,1314.905,988.396,1351.79,1020.887,1370.232C1053.378,1388.674,1094.583,1388.674,1135.789,1388.674C1176.995,1388.674,1218.201,1388.674,1251.762,1410.849C1285.323,1433.024,1311.239,1477.374,1324.198,1499.548L1337.156,1521.723" id="L-P4-D3-0" class=" edge-thickness-normal edge-pattern-solid flowchart-link LS-P4 LE-D3" style="fill:none;" marker-end="url(#render_dfd_lv1_flowchart-pointEnd)"></path><path d="M902.698,1291.949L920.944,1434.12C939.189,1576.291,975.681,1860.633,1014.529,2002.804C1053.378,2144.975,1094.583,2144.975,1135.789,2144.975C1176.995,2144.975,1218.201,2144.975,1248.713,2143.144C1279.226,2141.313,1299.046,2137.652,1308.956,2135.821L1318.866,2133.99" id="L-P4-D6-0" class=" edge-thickness-normal edge-pattern-solid flowchart-link LS-P4 LE-D6" style="fill:none;" marker-end="url(#render_dfd_lv1_flowchart-pointEnd)"></path><path d="M921.398,1113.822L936.527,1070.618C951.656,1027.415,981.914,941.007,1017.646,897.804C1053.378,854.6,1094.583,854.6,1135.789,854.6C1176.995,854.6,1218.201,854.6,1250.56,846.484C1282.919,838.369,1306.431,822.138,1318.187,814.022L1329.943,805.906" id="L-P4-D1-0" class=" edge-thickness-normal edge-pattern-solid flowchart-link LS-P4 LE-D1" style="fill:none;" marker-end="url(#render_dfd_lv1_flowchart-pointEnd)"></path><path d="M983.008,1200.674L987.868,1200.674C992.729,1200.674,1002.451,1200.674,1027.914,1200.674C1053.378,1200.674,1094.583,1200.674,1135.789,1200.674C1176.995,1200.674,1218.201,1200.674,1248.801,1201.841C1279.401,1203.007,1299.397,1205.341,1309.394,1206.507L1319.392,1207.674" id="L-P4-D2-0" class=" edge-thickness-normal edge-pattern-dotted flowchart-link LS-P4 LE-D2" style="fill:none;stroke-width:2px;stroke-dasharray:3;" marker-end="url(#render_dfd_lv1_flowchart-pointEnd)"></path><path d="M586.717,537.875L603.655,535.896C620.593,533.917,654.468,529.958,702.775,714.107C751.082,898.256,813.82,1270.513,845.189,1456.641L876.558,1642.769" id="L-STAFF-P5-0" class=" edge-thickness-normal edge-pattern-solid flowchart-link LS-STAFF LE-P5" style="fill:none;" marker-start="url(#render_dfd_lv1_flowchart-pointStart)" marker-end="url(#render_dfd_lv1_flowchart-pointEnd)"></path><path d="M514.751,281L543.683,331.167C572.615,381.333,630.48,481.667,690.667,708.648C750.854,935.629,813.364,1289.258,844.619,1466.072L875.874,1642.887" id="L-ADMIN-P5-0" class=" edge-thickness-normal edge-pattern-solid flowchart-link LS-ADMIN LE-P5" style="fill:none;" marker-end="url(#render_dfd_lv1_flowchart-pointEnd)"></path><path d="M943.951,1659.594L955.321,1644.83C966.691,1630.066,989.432,1600.539,1021.405,1585.775C1053.378,1571.012,1094.583,1571.012,1135.789,1571.012C1176.995,1571.012,1218.201,1571.012,1250.11,1569.924C1282.02,1568.836,1304.634,1566.659,1315.941,1565.571L1327.248,1564.483" id="L-P5-D3-0" class=" edge-thickness-normal edge-pattern-solid flowchart-link LS-P5 LE-D3" style="fill:none;" marker-start="url(#render_dfd_lv1_flowchart-pointStart)" marker-end="url(#render_dfd_lv1_flowchart-pointEnd)"></path><path d="M937.642,1795.202L950.064,1812.995C962.485,1830.788,987.329,1866.373,1020.353,1884.166C1053.378,1901.959,1094.583,1901.959,1135.789,1901.959C1176.995,1901.959,1218.201,1901.959,1246.978,1898.932C1275.755,1895.905,1292.103,1889.851,1300.277,1886.824L1308.452,1883.797" id="L-P5-D4-0" class=" edge-thickness-normal edge-pattern-solid flowchart-link LS-P5 LE-D4" style="fill:none;" marker-end="url(#render_dfd_lv1_flowchart-pointEnd)"></path><path d="M911.267,1649.425L928.084,1583.967C944.902,1518.508,978.537,1387.591,1015.957,1322.133C1053.378,1256.674,1094.583,1256.674,1135.789,1256.674C1176.995,1256.674,1218.201,1256.674,1248.866,1252.369C1279.532,1248.063,1299.658,1239.452,1309.721,1235.146L1319.784,1230.841" id="L-P5-D2-0" class=" edge-thickness-normal edge-pattern-dotted flowchart-link LS-P5 LE-D2" style="fill:none;stroke-width:2px;stroke-dasharray:3;" marker-end="url(#render_dfd_lv1_flowchart-pointEnd)"></path><path d="M581.891,434.439L599.633,432.366C617.375,430.293,652.859,426.146,701.252,587.228C749.645,748.31,810.946,1074.621,841.596,1237.776L872.247,1400.931" id="L-CRON-P6-0" class=" edge-thickness-normal edge-pattern-solid flowchart-link LS-CRON LE-P6" style="fill:none;" marker-end="url(#render_dfd_lv1_flowchart-pointEnd)"></path><path d="M961.239,1573.914L969.727,1582.764C978.216,1591.613,995.194,1609.312,1024.286,1618.162C1053.378,1627.012,1094.583,1627.012,1135.789,1627.012C1176.995,1627.012,1218.201,1627.012,1250.246,1619.68C1282.291,1612.347,1305.176,1597.683,1316.619,1590.351L1328.061,1583.018" id="L-P6-D3-0" class=" edge-thickness-normal edge-pattern-solid flowchart-link LS-P6 LE-D3" style="fill:none;" marker-start="url(#render_dfd_lv1_flowchart-pointStart)" marker-end="url(#render_dfd_lv1_flowchart-pointEnd)"></path><path d="M943.099,1419.828L954.611,1401.969C966.123,1384.11,989.148,1348.392,1021.263,1330.533C1053.378,1312.674,1094.583,1312.674,1135.789,1312.674C1176.995,1312.674,1218.201,1312.674,1249.089,1301.192C1279.977,1289.71,1300.549,1266.747,1310.834,1255.265L1321.12,1243.783" id="L-P6-D2-0" class=" edge-thickness-normal edge-pattern-solid flowchart-link LS-P6 LE-D2" style="fill:none;" marker-end="url(#render_dfd_lv1_flowchart-pointEnd)"></path></g><g class="edgeLabels"><g class="edgeLabel" transform="translate(688.34375, 38)"><g class="label" transform="translate(-76.4296875, -18)"><foreignObject width="152.859375" height="36"><div xmlns="http://www.w3.org/1999/xhtml" style="display: inline-block; white-space: nowrap;"><span class="edgeLabel">1. Đăng ký / Đăng nhập<br>Cấp phát JWT Token</span></div></foreignObject></g></g><g class="edgeLabel" transform="translate(688.34375, 94)"><g class="label" transform="translate(-52.8984375, -18)"><foreignObject width="105.796875" height="36"><div xmlns="http://www.w3.org/1999/xhtml" style="display: inline-block; white-space: nowrap;"><span class="edgeLabel">Cấu hình RBAC<br>Khóa tài khoản</span></div></foreignObject></g></g><g class="edgeLabel" transform="translate(1135.7890625, 752.7132186889648)"><g class="label" transform="translate(-66.2109375, -18)"><foreignObject width="132.421875" height="36"><div xmlns="http://www.w3.org/1999/xhtml" style="display: inline-block; white-space: nowrap;"><span class="edgeLabel">Ghi nhận / Đọc User<br>PasswordHash</span></div></foreignObject></g></g><g class="edgeLabel" transform="translate(688.34375, 150)"><g class="label" transform="translate(-61.1015625, -18)"><foreignObject width="122.203125" height="36"><div xmlns="http://www.w3.org/1999/xhtml" style="display: inline-block; white-space: nowrap;"><span class="edgeLabel">2. Tra cứu Menu<br>Danh mục đồ uống</span></div></foreignObject></g></g><g class="edgeLabel" transform="translate(688.34375, 254)"><g class="label" transform="translate(-64.8828125, -18)"><foreignObject width="129.765625" height="36"><div xmlns="http://www.w3.org/1999/xhtml" style="display: inline-block; white-space: nowrap;"><span class="edgeLabel">Cập nhật giá &amp; món<br>Điều chỉnh kho</span></div></foreignObject></g></g><g class="edgeLabel" transform="translate(1135.7890625, 956.4866561889648)"><g class="label" transform="translate(-83.3203125, -18)"><foreignObject width="166.640625" height="36"><div xmlns="http://www.w3.org/1999/xhtml" style="display: inline-block; white-space: nowrap;"><span class="edgeLabel">Đọc danh mục<br>Cập nhật sản phẩm &amp; kho</span></div></foreignObject></g></g><g class="edgeLabel" transform="translate(290.2421875, 887.8772811889648)"><g class="label" transform="translate(-50.109375, -18)"><foreignObject width="100.21875" height="36"><div xmlns="http://www.w3.org/1999/xhtml" style="display: inline-block; white-space: nowrap;"><span class="edgeLabel">3. Gửi giỏ hàng<br>&amp; Mã Voucher</span></div></foreignObject></g></g><g class="edgeLabel" transform="translate(290.2421875, 831.8772811889648)"><g class="label" transform="translate(-76.2265625, -18)"><foreignObject width="152.453125" height="36"><div xmlns="http://www.w3.org/1999/xhtml" style="display: inline-block; white-space: nowrap;"><span class="edgeLabel">Phản hồi mã đơn #10xx<br>Hạn thanh toán 15p</span></div></foreignObject></g></g><g class="edgeLabel" transform="translate(688.34375, 2080.008092880249)"><g class="label" transform="translate(-56.7578125, -18)"><foreignObject width="113.515625" height="36"><div xmlns="http://www.w3.org/1999/xhtml" style="display: inline-block; white-space: nowrap;"><span class="edgeLabel">Xác thực voucher<br>Đọc minOrder</span></div></foreignObject></g></g><g class="edgeLabel" transform="translate(688.34375, 1073.6507186889648)"><g class="label" transform="translate(-74.3359375, -18)"><foreignObject width="148.671875" height="36"><div xmlns="http://www.w3.org/1999/xhtml" style="display: inline-block; white-space: nowrap;"><span class="edgeLabel">Trừ kho Optimistic<br>(stock -= qty, ver += 1)</span></div></foreignObject></g></g><g class="edgeLabel" transform="translate(688.34375, 1350.6741561889648)"><g class="label" transform="translate(-81.453125, -18)"><foreignObject width="162.90625" height="36"><div xmlns="http://www.w3.org/1999/xhtml" style="display: inline-block; white-space: nowrap;"><span class="edgeLabel">Tạo đơn PENDING<br>(expiresAt = now + 15m)</span></div></foreignObject></g></g><g class="edgeLabel" transform="translate(688.34375, 1844.8772811889648)"><g class="label" transform="translate(-47.5625, -18)"><foreignObject width="95.125" height="36"><div xmlns="http://www.w3.org/1999/xhtml" style="display: inline-block; white-space: nowrap;"><span class="edgeLabel">Snapshot món,<br>size, topping</span></div></foreignObject></g></g><g class="edgeLabel" transform="translate(688.34375, 310)"><g class="label" transform="translate(-69.6796875, -18)"><foreignObject width="139.359375" height="36"><div xmlns="http://www.w3.org/1999/xhtml" style="display: inline-block; white-space: nowrap;"><span class="edgeLabel">4. Yêu cầu thanh toán<br>(Idempotency-Key)</span></div></foreignObject></g></g><g class="edgeLabel" transform="translate(688.34375, 366)"><g class="label" transform="translate(-60.6484375, -18)"><foreignObject width="121.296875" height="36"><div xmlns="http://www.w3.org/1999/xhtml" style="display: inline-block; white-space: nowrap;"><span class="edgeLabel">Kết quả thanh toán<br>&amp; Điểm Loyalty</span></div></foreignObject></g></g><g class="edgeLabel" transform="translate(1135.7890625, 310)"><g class="label" transform="translate(-63.65625, -18)"><foreignObject width="127.3125" height="36"><div xmlns="http://www.w3.org/1999/xhtml" style="display: inline-block; white-space: nowrap;"><span class="edgeLabel">Gửi lệnh thanh toán<br>Nhận kết quả GD</span></div></foreignObject></g></g><g class="edgeLabel" transform="translate(1135.7890625, 1996.0407485961914)"><g class="label" transform="translate(-64.6484375, -18)"><foreignObject width="129.296875" height="36"><div xmlns="http://www.w3.org/1999/xhtml" style="display: inline-block; white-space: nowrap;"><span class="edgeLabel">Kiểm tra trùng khóa<br>Ghi nhận Payment</span></div></foreignObject></g></g><g class="edgeLabel" transform="translate(1135.7890625, 1388.6741561889648)"><g class="label" transform="translate(-91.4765625, -18)"><foreignObject width="182.953125" height="36"><div xmlns="http://www.w3.org/1999/xhtml" style="display: inline-block; white-space: nowrap;"><span class="edgeLabel">Cập nhật PAID<br>(hoặc PAYMENT_FAILED)</span></div></foreignObject></g></g><g class="edgeLabel" transform="translate(1135.7890625, 2144.9754371643066)"><g class="label" transform="translate(-63.09375, -18)"><foreignObject width="126.1875" height="36"><div xmlns="http://www.w3.org/1999/xhtml" style="display: inline-block; white-space: nowrap;"><span class="edgeLabel">Tăng usedCount<br>voucher thành công</span></div></foreignObject></g></g><g class="edgeLabel" transform="translate(1135.7890625, 854.5999374389648)"><g class="label" transform="translate(-62.21875, -18)"><foreignObject width="124.4375" height="36"><div xmlns="http://www.w3.org/1999/xhtml" style="display: inline-block; white-space: nowrap;"><span class="edgeLabel">Cộng điểm Loyalty<br>(1đ / 10.000đ)</span></div></foreignObject></g></g><g class="edgeLabel" transform="translate(1135.7890625, 1200.6741561889648)"><g class="label" transform="translate(-61.546875, -18)"><foreignObject width="123.09375" height="36"><div xmlns="http://www.w3.org/1999/xhtml" style="display: inline-block; white-space: nowrap;"><span class="edgeLabel">Nếu thanh toán lỗi:<br>Tự động hoàn kho</span></div></foreignObject></g></g><g class="edgeLabel" transform="translate(688.34375, 526)"><g class="label" transform="translate(-74.671875, -18)"><foreignObject width="149.34375" height="36"><div xmlns="http://www.w3.org/1999/xhtml" style="display: inline-block; white-space: nowrap;"><span class="edgeLabel">5. Nhận hàng đợi FIFO<br>Cập nhật tiến độ KDS</span></div></foreignObject></g></g><g class="edgeLabel" transform="translate(688.34375, 582)"><g class="label" transform="translate(-63.1171875, -18)"><foreignObject width="126.234375" height="36"><div xmlns="http://www.w3.org/1999/xhtml" style="display: inline-block; white-space: nowrap;"><span class="edgeLabel">Giám sát hàng đợi<br>Can thiệp đơn KDS</span></div></foreignObject></g></g><g class="edgeLabel" transform="translate(1135.7890625, 1571.01171875)"><g class="label" transform="translate(-98.6171875, -18)"><foreignObject width="197.234375" height="36"><div xmlns="http://www.w3.org/1999/xhtml" style="display: inline-block; white-space: nowrap;"><span class="edgeLabel">Đọc đơn PAID/PREP/READY<br>Cập nhật trạng thái</span></div></foreignObject></g></g><g class="edgeLabel" transform="translate(1135.7890625, 1901.9590148925781)"><g class="label" transform="translate(-55.546875, -18)"><foreignObject width="111.09375" height="36"><div xmlns="http://www.w3.org/1999/xhtml" style="display: inline-block; white-space: nowrap;"><span class="edgeLabel">Đọc chi tiết món,<br>size, topping</span></div></foreignObject></g></g><g class="edgeLabel" transform="translate(1135.7890625, 1256.6741561889648)"><g class="label" transform="translate(-63.765625, -18)"><foreignObject width="127.53125" height="36"><div xmlns="http://www.w3.org/1999/xhtml" style="display: inline-block; white-space: nowrap;"><span class="edgeLabel">Hủy sự cố tại quầy:<br>Hoàn kho sản phẩm</span></div></foreignObject></g></g><g class="edgeLabel" transform="translate(688.34375, 422)"><g class="label" transform="translate(-65.546875, -18)"><foreignObject width="131.09375" height="36"><div xmlns="http://www.w3.org/1999/xhtml" style="display: inline-block; white-space: nowrap;"><span class="edgeLabel">6. Kích hoạt định kỳ<br>(5 phút/lần)</span></div></foreignObject></g></g><g class="edgeLabel" transform="translate(1135.7890625, 1627.01171875)"><g class="label" transform="translate(-93.9921875, -18)"><foreignObject width="187.984375" height="36"><div xmlns="http://www.w3.org/1999/xhtml" style="display: inline-block; white-space: nowrap;"><span class="edgeLabel">Quét đơn PENDING quá hạn<br>Chuyển CANCELLED</span></div></foreignObject></g></g><g class="edgeLabel" transform="translate(1135.7890625, 1312.6741561889648)"><g class="label" transform="translate(-71.6875, -18)"><foreignObject width="143.375" height="36"><div xmlns="http://www.w3.org/1999/xhtml" style="display: inline-block; white-space: nowrap;"><span class="edgeLabel">Tự động hoàn trả<br>tồn kho (stock += qty)</span></div></foreignObject></g></g></g><g class="nodes"><g class="node default storeBox flowchart-label" id="flowchart-D1-98" label-offset-y="7.722874913614375" data-node="true" data-id="D1" transform="translate(1362.2421875, 783.609375)"><path style="" d="M 0,7.722874913614375 a 27.9375,7.722874913614375 0,0,0 55.875 0 a 27.9375,7.722874913614375 0,0,0 -55.875 0 l 0,58.722874913614376 a 27.9375,7.722874913614375 0,0,0 55.875 0 l 0,-58.722874913614376" transform="translate(-27.9375,-37.084312370421564)"></path><g class="label" style="" transform="translate(-20.4375, -18)"><rect></rect><foreignObject width="40.875" height="36"><div xmlns="http://www.w3.org/1999/xhtml" style="display: inline-block; white-space: nowrap;"><span class="nodeLabel">[(D1)]<br>users</span></div></foreignObject></g></g><g class="node default storeBox flowchart-label" id="flowchart-D2-99" label-offset-y="9.388416204823978" data-node="true" data-id="D2" transform="translate(1362.2421875, 1212.6741561889648)"><path style="" d="M 0,9.388416204823978 a 37.5859375,9.388416204823978 0,0,0 75.171875 0 a 37.5859375,9.388416204823978 0,0,0 -75.171875 0 l 0,60.388416204823976 a 37.5859375,9.388416204823978 0,0,0 75.171875 0 l 0,-60.388416204823976" transform="translate(-37.5859375,-39.58262430723597)"></path><g class="label" style="" transform="translate(-30.0859375, -18)"><rect></rect><foreignObject width="60.171875" height="36"><div xmlns="http://www.w3.org/1999/xhtml" style="display: inline-block; white-space: nowrap;"><span class="nodeLabel">[(D2)]<br>products</span></div></foreignObject></g></g><g class="node default storeBox flowchart-label" id="flowchart-D3-100" label-offset-y="8.056590986106405" data-node="true" data-id="D3" transform="translate(1362.2421875, 1561.1155624389648)"><path style="" d="M 0,8.056590986106405 a 29.71875,8.056590986106405 0,0,0 59.4375 0 a 29.71875,8.056590986106405 0,0,0 -59.4375 0 l 0,59.05659098610641 a 29.71875,8.056590986106405 0,0,0 59.4375 0 l 0,-59.05659098610641" transform="translate(-29.71875,-37.58488647915961)"></path><g class="label" style="" transform="translate(-22.21875, -18)"><rect></rect><foreignObject width="44.4375" height="36"><div xmlns="http://www.w3.org/1999/xhtml" style="display: inline-block; white-space: nowrap;"><span class="nodeLabel">[(D3)]<br>orders</span></div></foreignObject></g></g><g class="node default storeBox flowchart-label" id="flowchart-D4-101" label-offset-y="10.963927293143378" data-node="true" data-id="D4" transform="translate(1362.2421875, 1863.8772811889648)"><path style="" d="M 0,10.963927293143378 a 48.8203125,10.963927293143378 0,0,0 97.640625 0 a 48.8203125,10.963927293143378 0,0,0 -97.640625 0 l 0,61.96392729314338 a 48.8203125,10.963927293143378 0,0,0 97.640625 0 l 0,-61.96392729314338" transform="translate(-48.8203125,-41.94589093971507)"></path><g class="label" style="" transform="translate(-41.3203125, -18)"><rect></rect><foreignObject width="82.640625" height="36"><div xmlns="http://www.w3.org/1999/xhtml" style="display: inline-block; white-space: nowrap;"><span class="nodeLabel">[(D4)]<br>order_items</span></div></foreignObject></g></g><g class="node default storeBox flowchart-label" id="flowchart-D5-102" label-offset-y="9.81397114654518" data-node="true" data-id="D5" transform="translate(1362.2421875, 1996.0407485961914)"><path style="" d="M 0,9.81397114654518 a 40.390625,9.81397114654518 0,0,0 80.78125 0 a 40.390625,9.81397114654518 0,0,0 -80.78125 0 l 0,60.81397114654518 a 40.390625,9.81397114654518 0,0,0 80.78125 0 l 0,-60.81397114654518" transform="translate(-40.390625,-40.22095671981777)"></path><g class="label" style="" transform="translate(-32.890625, -18)"><rect></rect><foreignObject width="65.78125" height="36"><div xmlns="http://www.w3.org/1999/xhtml" style="display: inline-block; white-space: nowrap;"><span class="nodeLabel">[(D5)]<br>payments</span></div></foreignObject></g></g><g class="node default storeBox flowchart-label" id="flowchart-D6-103" label-offset-y="9.478075281334887" data-node="true" data-id="D6" transform="translate(1362.2421875, 2125.9754371643066)"><path style="" d="M 0,9.478075281334887 a 38.1640625,9.478075281334887 0,0,0 76.328125 0 a 38.1640625,9.478075281334887 0,0,0 -76.328125 0 l 0,60.47807528133489 a 38.1640625,9.478075281334887 0,0,0 76.328125 0 l 0,-60.47807528133489" transform="translate(-38.1640625,-39.71711292200233)"></path><g class="label" style="" transform="translate(-30.6640625, -18)"><rect></rect><foreignObject width="61.328125" height="36"><div xmlns="http://www.w3.org/1999/xhtml" style="display: inline-block; white-space: nowrap;"><span class="nodeLabel">[(D6)]<br>vouchers</span></div></foreignObject></g></g><g class="node default processBubble flowchart-label" id="flowchart-P1-92" data-node="true" data-id="P1" transform="translate(890.984375, 752.7132186889648)"><circle style="" rx="0" ry="0" r="71.609375" width="143.21875" height="51"></circle><g class="label" style="" transform="translate(-64.109375, -18)"><rect></rect><foreignObject width="128.21875" height="36"><div xmlns="http://www.w3.org/1999/xhtml" style="display: inline-block; white-space: nowrap;"><span class="nodeLabel">1.0 Xác thực &amp;<br>Quản lý Tài khoản</span></div></foreignObject></g></g><g class="node default processBubble flowchart-label" id="flowchart-P2-93" data-node="true" data-id="P2" transform="translate(890.984375, 956.4866561889648)"><circle style="" rx="0" ry="0" r="82.1640625" width="164.328125" height="51"></circle><g class="label" style="" transform="translate(-74.6640625, -18)"><rect></rect><foreignObject width="149.328125" height="36"><div xmlns="http://www.w3.org/1999/xhtml" style="display: inline-block; white-space: nowrap;"><span class="nodeLabel">2.0 Quản lý Thực đơn<br>&amp; Tra cứu Tồn kho</span></div></foreignObject></g></g><g class="node default processBubble flowchart-label" id="flowchart-P3-94" data-node="true" data-id="P3" transform="translate(107.0078125, 1206.05859375)"><circle style="" rx="0" ry="0" r="82.0078125" width="164.015625" height="51"></circle><g class="label" style="" transform="translate(-74.5078125, -18)"><rect></rect><foreignObject width="149.015625" height="36"><div xmlns="http://www.w3.org/1999/xhtml" style="display: inline-block; white-space: nowrap;"><span class="nodeLabel">3.0 Xử lý Đặt hàng<br>&amp; Trừ kho Optimistic</span></div></foreignObject></g></g><g class="node default processBubble flowchart-label" id="flowchart-P4-95" data-node="true" data-id="P4" transform="translate(890.984375, 1200.6741561889648)"><circle style="" rx="0" ry="0" r="92.0234375" width="184.046875" height="51"></circle><g class="label" style="" transform="translate(-84.5234375, -18)"><rect></rect><foreignObject width="169.046875" height="36"><div xmlns="http://www.w3.org/1999/xhtml" style="display: inline-block; white-space: nowrap;"><span class="nodeLabel">4.0 Xử lý Thanh toán<br>&amp; Tích điểm Idempotent</span></div></foreignObject></g></g><g class="node default processBubble flowchart-label" id="flowchart-P5-96" data-node="true" data-id="P5" transform="translate(890.984375, 1728.3694686889648)"><circle style="" rx="0" ry="0" r="81.5078125" width="163.015625" height="51"></circle><g class="label" style="" transform="translate(-74.0078125, -18)"><rect></rect><foreignObject width="148.015625" height="36"><div xmlns="http://www.w3.org/1999/xhtml" style="display: inline-block; white-space: nowrap;"><span class="nodeLabel">5.0 Điều phối Pha chế<br>&amp; Màn hình KDS</span></div></foreignObject></g></g><g class="node default processBubble flowchart-label" id="flowchart-P6-97" data-node="true" data-id="P6" transform="translate(890.984375, 1500.6741561889648)"><circle style="" rx="0" ry="0" r="96.1875" width="192.375" height="51"></circle><g class="label" style="" transform="translate(-88.6875, -18)"><rect></rect><foreignObject width="177.375" height="36"><div xmlns="http://www.w3.org/1999/xhtml" style="display: inline-block; white-space: nowrap;"><span class="nodeLabel">6.0 Tự động Dọn dẹp<br>&amp; Hoàn kho Đơn quá hạn</span></div></foreignObject></g></g><g class="node default entityBox flowchart-label" id="flowchart-CUST-87" data-node="true" data-id="CUST" transform="translate(499.1796875, 147)"><rect class="basic label-container" style="" rx="0" ry="0" x="-62.0546875" y="-27" width="124.109375" height="54"></rect><g class="label" style="" transform="translate(-54.5546875, -19.5)"><rect></rect><foreignObject width="109.109375" height="39"><div xmlns="http://www.w3.org/1999/xhtml" style="display: inline-block; white-space: nowrap;"><span class="nodeLabel">👤 Khách hàng<br>(Customer)</span></div></foreignObject></g></g><g class="node default entityBox flowchart-label" id="flowchart-STAFF-88" data-node="true" data-id="STAFF" transform="translate(499.1796875, 548.1038436889648)"><rect class="basic label-container" style="" rx="0" ry="0" x="-82.2734375" y="-27" width="164.546875" height="54"></rect><g class="label" style="" transform="translate(-74.7734375, -19.5)"><rect></rect><foreignObject width="149.546875" height="39"><div xmlns="http://www.w3.org/1999/xhtml" style="display: inline-block; white-space: nowrap;"><span class="nodeLabel">🧑‍🍳 Nhân viên Barista<br>(Staff / KDS)</span></div></foreignObject></g></g><g class="node default entityBox flowchart-label" id="flowchart-ADMIN-89" data-node="true" data-id="ADMIN" transform="translate(499.1796875, 254)"><rect class="basic label-container" style="" rx="0" ry="0" x="-66.265625" y="-27" width="132.53125" height="54"></rect><g class="label" style="" transform="translate(-58.765625, -19.5)"><rect></rect><foreignObject width="117.53125" height="39"><div xmlns="http://www.w3.org/1999/xhtml" style="display: inline-block; white-space: nowrap;"><span class="nodeLabel">👨‍💼 Quản trị viên<br>(Store Admin)</span></div></foreignObject></g></g><g class="node default entityBox flowchart-label" id="flowchart-GATEWAY-90" data-node="true" data-id="GATEWAY" transform="translate(1362.2421875, 310)"><rect class="basic label-container" style="" rx="0" ry="0" x="-77.8359375" y="-27" width="155.671875" height="54"></rect><g class="label" style="" transform="translate(-70.3359375, -19.5)"><rect></rect><foreignObject width="140.671875" height="39"><div xmlns="http://www.w3.org/1999/xhtml" style="display: inline-block; white-space: nowrap;"><span class="nodeLabel">💳 Cổng thanh toán<br>(Mock Gateway)</span></div></foreignObject></g></g><g class="node default entityBox flowchart-label" id="flowchart-CRON-91" data-node="true" data-id="CRON" transform="translate(499.1796875, 444.10384368896484)"><rect class="basic label-container" style="" rx="0" ry="0" x="-82.7109375" y="-27" width="165.421875" height="54"></rect><g class="label" style="" transform="translate(-75.2109375, -19.5)"><rect></rect><foreignObject width="150.421875" height="39"><div xmlns="http://www.w3.org/1999/xhtml" style="display: inline-block; white-space: nowrap;"><span class="nodeLabel">⏱️ Hệ thống Tự động<br>(Cron Scheduler)</span></div></foreignObject></g></g></g></g></g></svg>